<svg width="31" height="30" viewBox="0 0 31 30" fill="none" xmlns="http://www.w3.org/2000/svg">
<rect x="0.666504" y="0.5" width="29" height="29" rx="9.08064" fill="#1C1C1C" stroke="#1C1C1C"/>
<mask id="mask0_425_4404" style="mask-type:alpha" maskUnits="userSpaceOnUse" x="0" y="0" width="31" height="30">
<rect x="0.166504" width="30" height="30" rx="10" fill="#1C1C1C"/>
</mask>
<g mask="url(#mask0_425_4404)">
<path d="M9.28976 7.82814C13.4681 6.72395 17.8659 6.72395 22.0442 7.82814C22.7334 8.01169 23.3568 8.38309 23.8433 8.90008C24.3299 9.41708 24.6602 10.0589 24.7966 10.7526C25.2898 13.2613 25.2898 15.8406 24.7966 18.3493C24.6603 19.043 24.33 19.6849 23.8434 20.2019C23.3568 20.7189 22.7335 21.0903 22.0442 21.2738C21.9378 21.3015 21.832 21.3293 21.7256 21.3559C21.6229 21.3817 21.5318 21.4407 21.4668 21.5235C21.4017 21.6063 21.3664 21.7082 21.3663 21.8131V24.8118C21.3663 24.8477 21.356 24.8828 21.3365 24.913C21.3171 24.9432 21.2893 24.9673 21.2565 24.9825C21.2237 24.9976 21.1872 25.0031 21.1513 24.9984C21.1154 24.9936 21.0816 24.9788 21.0539 24.9557L17.9766 22.374C17.7175 22.1562 17.3839 22.0453 17.0446 22.0641C14.4336 22.2082 11.8159 21.9415 9.28919 21.2738C8.59998 21.0903 7.97662 20.7189 7.49004 20.2019C7.00345 19.6849 6.67318 19.043 6.5368 18.3493C6.04307 15.8407 6.04307 13.2612 6.5368 10.7526C6.67322 10.0588 7.00358 9.4169 7.49028 8.89989C7.97697 8.38288 8.60045 8.01154 9.28976 7.82814ZM17.377 18.3255C17.4811 18.3255 17.567 18.2405 17.567 18.1374V14.5501H21.1769C21.2816 14.5501 21.3669 14.4651 21.3669 14.3615V10.9634C21.3669 10.9134 21.3469 10.8655 21.3113 10.8302C21.2757 10.7948 21.2274 10.7749 21.1769 10.7747H10.1571C10.1067 10.775 10.0585 10.795 10.0229 10.8303C9.98732 10.8657 9.96728 10.9135 9.96713 10.9634V14.3615C9.96713 14.4651 10.0529 14.5501 10.1571 14.5501H13.767V18.1374C13.767 18.2405 13.8529 18.3255 13.957 18.3255H17.377Z" fill="#E0E1E5"/>
</g>
</svg>
