<svg width="31" height="30" viewBox="0 0 31 30" fill="none" xmlns="http://www.w3.org/2000/svg">
<rect x="0.666504" y="0.5" width="29" height="29" rx="9.08064" fill="#1C1C1C" stroke="#1C1C1C"/>
<mask id="mask0_425_4399" style="mask-type:alpha" maskUnits="userSpaceOnUse" x="0" y="0" width="31" height="30">
<rect x="0.166504" width="30" height="30" rx="10" fill="#1C1C1C"/>
</mask>
<g mask="url(#mask0_425_4399)">
<path fill-rule="evenodd" clip-rule="evenodd" d="M6.40391 13.8879C11.2357 11.6299 14.4578 10.1413 16.0698 9.42212C20.6728 7.36862 21.6292 7.0119 22.2526 7.00013C22.3897 6.99753 22.6963 7.03398 22.8949 7.20682C23.0626 7.35275 23.1087 7.5499 23.1308 7.68826C23.1529 7.82662 23.1803 8.14182 23.1585 8.38811C22.9091 11.1992 21.8298 18.021 21.2807 21.1694C21.0484 22.5016 20.5908 22.9484 20.148 22.9921C19.1854 23.087 18.4546 22.3098 17.5223 21.6544C16.0636 20.6287 15.2394 19.9902 13.8234 18.9893C12.187 17.8327 13.2478 17.197 14.1804 16.158C14.4245 15.8861 18.6654 11.7487 18.7475 11.3733C18.7577 11.3264 18.7672 11.1514 18.6703 11.059C18.5734 10.9666 18.4303 10.9982 18.3272 11.0234C18.1808 11.059 15.8504 12.7111 11.3359 15.9798C10.6744 16.467 10.0753 16.7044 9.53843 16.6919C8.94664 16.6782 7.80825 16.333 6.96198 16.0379C5.924 15.6761 5.09903 15.4847 5.17086 14.8701C5.20828 14.5499 5.6193 14.2226 6.40391 13.8879Z" fill="#E0E1E5"/>
</g>
</svg>
