<svg width="273" height="30" viewBox="0 0 273 30" fill="none" xmlns="http://www.w3.org/2000/svg">
<path d="M99.3558 27.6735L99.3288 15.3681L99.3018 3.06262H107.709H116.117L116.144 9.22709L116.172 15.3916L120.855 9.22784L125.538 3.0641L133.919 3.06336L142.301 3.06262V15.3945V27.7264H133.947H125.593L125.565 21.5076L125.538 15.2887L120.811 21.5082L116.085 27.7277L107.72 27.7006L99.3558 27.6735Z" fill="white"/>
<path d="M59.2832 12.061V7.61489V3.16882H77.3236H95.3639V7.61383V12.0588L90.5478 12.0864L85.7317 12.1139L85.7045 19.9739L85.6771 27.8339H77.3229H68.9686V19.9474V12.061H64.1259H59.2832Z" fill="white"/>
<path d="M0 27.7254V15.394V3.06274L11.0364 3.08963L22.0728 3.11662L24.9525 8.27197C26.5363 11.1074 27.8598 13.4294 27.8936 13.4319C27.9274 13.4344 29.3366 11.1026 31.0251 8.25006L34.0952 3.0637H44.7202H55.345V15.3945V27.7254H47.0433H38.7415L38.736 21.6129C38.7307 15.8315 38.7206 15.5144 38.5497 15.759C38.4503 15.9011 36.8072 18.6398 34.8983 21.845L31.4277 27.6725L27.3925 27.7002L23.3574 27.7278L19.7409 21.6027L16.1246 15.4775L16.0971 21.6015L16.0696 27.7254H8.03482H0Z" fill="white"/>
<path d="M201.339 24.989C200.634 23.5409 200.032 22.3024 200 22.2368C199.946 22.1252 200.018 22.1175 201.107 22.1187L202.271 22.1199L203.067 23.9315C203.504 24.9279 203.88 25.7548 203.9 25.7691C203.921 25.7833 204.294 24.9675 204.728 23.9561L205.517 22.1174H206.584C207.17 22.1174 207.65 22.1345 207.65 22.1555C207.65 22.1764 207.03 23.5496 206.272 25.207C204.201 29.7366 204.361 29.5557 202.382 29.6047L201.22 29.6334V28.7736V27.9137H201.921C202.829 27.9137 202.875 28.1437 201.339 24.989Z" fill="white"/>
<path d="M227.792 16.3812C224.971 16.4519 224.467 16.0429 224.467 13.6857V12.5901H225.559H226.652V13.4405C226.652 14.7588 226.996 15.0066 228.601 14.8445L229.093 14.7947V13.6924V12.5901H230.186H231.278V15.3953V18.2006H230.186H229.093V17.2746V16.3486L227.792 16.3812Z" fill="white"/>
<path d="M210.311 18.2006V15.3953V12.5901H212.812H215.313V13.352V14.1139H213.902H212.492V16.1573V18.2006H211.401H210.311Z" fill="white"/>
<path d="M194.363 14.9077C194.363 14.6014 194.382 13.9546 194.404 13.4704L194.446 12.5901H197.482H200.519V15.3865V18.1829H199.44H198.361V16.146V14.1091H197.355H196.349L196.306 15.1621C196.207 17.5578 195.845 18.1 194.297 18.1694L193.601 18.2006V17.4399V16.6792L193.824 16.6338C194.199 16.5572 194.362 16.0348 194.363 14.9077Z" fill="white"/>
<path d="M176.572 18.2006V15.3953V12.5901H177.661H178.75V13.5944V14.5988H180.223H181.696V13.5944V12.5901H182.753H183.81V15.3953V18.2006H182.753H181.696V17.1962V16.1919H180.223H178.75V17.1962V18.2006H177.661H176.572Z" fill="white"/>
<path d="M160.5 27.7279V24.9227V22.1174H161.589H162.678V23.1218V24.1261H164.151H165.624V23.1218V22.1174H166.681H167.738V24.9227V27.7279H166.681H165.624V26.7236V25.7192H164.151H162.678V26.7236V27.7279H161.589H160.5Z" fill="white"/>
<path d="M170.641 15.3458L169.337 13.9679L168.032 12.5901H169.306H170.579L171.249 13.3174L171.92 14.0448L172.594 13.3174L173.269 12.5901L174.484 12.5936L175.7 12.5969L174.419 13.9418L173.139 15.2867L174.483 16.7437L175.827 18.2006H174.58H173.333L172.594 17.404L171.856 16.6074L171.121 17.404L170.387 18.2006L169.169 18.1971L167.951 18.1935L169.296 16.7697L170.641 15.3458Z" fill="white"/>
<path fill-rule="evenodd" clip-rule="evenodd" d="M162.235 12.6551C159.947 12.8978 158.727 14.7454 159.628 16.6044C160.73 18.8752 167.126 18.662 167.141 16.354L167.142 16.1439H166.097C165.053 16.1439 165.051 16.1443 164.947 16.3047C164.374 17.1909 161.861 16.9396 161.562 15.9662L161.518 15.8208H164.362H167.206V15.5096C167.206 13.3224 165.45 12.3141 162.235 12.6551ZM164.332 14.0189C164.668 14.1685 164.825 14.3019 164.949 14.5444L165.04 14.7223H163.315C162.033 14.7223 161.65 14.7244 161.615 14.614C161.599 14.5651 161.651 14.4943 161.723 14.3916C162.095 13.863 163.523 13.6591 164.332 14.0189Z" fill="white"/>
<path fill-rule="evenodd" clip-rule="evenodd" d="M234.929 12.6551C232.64 12.8978 231.42 14.7454 232.322 16.6044C233.423 18.8752 239.819 18.662 239.834 16.354L239.836 16.1439H238.79C237.746 16.1439 237.744 16.1443 237.64 16.3047C237.067 17.1909 234.554 16.9396 234.256 15.9662L234.211 15.8208H237.055H239.899V15.5096C239.899 13.3224 238.144 12.3141 234.929 12.6551ZM237.025 14.0189C237.362 14.1685 237.518 14.3019 237.642 14.5444L237.733 14.7223H236.008C234.727 14.7223 234.344 14.7244 234.308 14.6139C234.292 14.5651 234.344 14.4943 234.416 14.3915C234.788 13.863 236.216 13.6591 237.025 14.0189Z" fill="white"/>
<path d="M152.092 14.1139V13.352V12.5901H155.338H158.585V13.352V14.1139H157.503H156.421V16.1573V18.2006H155.338H154.256V16.1573V14.1139H153.174H152.092Z" fill="white"/>
<path d="M177.104 23.6413V22.8794V22.1174H180.35H183.596V22.8794V23.6413H182.514H181.432V25.6846V27.7279H180.35H179.268V25.6846V23.6413H178.186H177.104Z" fill="white"/>
<path d="M192.75 23.6413V22.8794V22.1174H195.996H199.242V22.8794V23.6413H198.16H197.078V25.6846V27.7279H195.996H194.914V25.6846V23.6413H193.832H192.75Z" fill="white"/>
<path d="M208.396 23.6413V22.8794V22.1174H211.642H214.888V22.8794V23.6413H213.806H212.724V25.6846V27.7279H211.642H210.56V25.6846V23.6413H209.478H208.396Z" fill="white"/>
<path d="M234.916 1.33135C234.326 3.12391 230.803 2.97792 230.613 1.15305L230.581 0.839844L231.371 0.842547L232.162 0.845182L232.291 1.06785C232.533 1.48705 233.106 1.47658 233.33 1.04885L233.439 0.840745L234.221 0.84026C235.094 0.839774 235.081 0.830762 234.916 1.33135Z" fill="white"/>
<path d="M228.937 8.67339V5.86579V3.05819H230.023H231.108V4.80812V6.55799L232.721 4.80812L234.334 3.05819H235.467H236.6V5.86579V8.67339H235.515H234.429V6.8888V5.1042L232.784 6.8888L231.139 8.67339H230.038H228.937Z" fill="white"/>
<path d="M271.316 10.8587C270.726 12.6513 267.203 12.5053 267.013 10.6804L266.981 10.3672L267.771 10.3699L268.562 10.3725L268.691 10.5952C268.933 11.0144 269.506 11.0039 269.73 10.5762L269.839 10.3681L270.621 10.3676C271.494 10.3671 271.481 10.3581 271.316 10.8587Z" fill="white"/>
<path d="M265.337 18.2007V15.3931V12.5855H266.423H267.508V14.3355V16.0853L269.121 14.3355L270.734 12.5855H271.867H273V15.3931V18.2007H271.914H270.829V16.4161V14.6315L269.184 16.4161L267.539 18.2007H266.438H265.337Z" fill="white"/>
<path d="M220.528 8.67313V5.86788V3.06262H221.614H222.7V4.81109V6.5595L224.312 4.81109L225.925 3.06262H227.058H228.191V5.86788V8.67313H227.106H226.02V6.89003V5.10693L224.375 6.89003L222.731 8.67313H221.629H220.528Z" fill="white"/>
<path d="M152.092 27.7279V24.9227V22.1174H153.178H154.264V23.8659V25.6143L155.876 23.8659L157.489 22.1174H158.622H159.755V24.9227V27.7279H158.67H157.584V25.9448V24.1617L155.939 25.9448L154.295 27.7279H153.193H152.092Z" fill="white"/>
<path d="M184.341 27.7279V24.9227V22.1174H185.427H186.513V23.8659V25.6143L188.125 23.8659L189.738 22.1174H190.871H192.004V24.9227V27.7279H190.919H189.833V25.9448V24.1617L188.188 25.9448L186.544 27.7279H185.442H184.341Z" fill="white"/>
<path d="M256.929 18.2006V15.3953V12.5901H258.014H259.1V14.3386V16.087L260.713 14.3386L262.326 12.5901H263.459H264.592V15.3953V18.2006H263.506H262.421V16.4175V14.6344L260.776 16.4175L259.131 18.2006H258.03H256.929Z" fill="white"/>
<path d="M216.059 18.2006V15.3953V12.5901H217.144H218.23V14.3386V16.087L219.843 14.3386L221.456 12.5901H222.589H223.722V15.3953V18.2006H222.636H221.551V16.4175V14.6344L219.906 16.4175L218.261 18.2006H217.16H216.059Z" fill="white"/>
<path fill-rule="evenodd" clip-rule="evenodd" d="M196.475 8.67314V5.86785V3.06262L199.19 3.08982C202.054 3.1186 202.267 3.14069 202.772 3.46261C203.566 3.96723 203.341 5.27542 202.418 5.52715C202.189 5.58948 202.215 5.65981 202.499 5.7523C203.646 6.12599 203.86 7.57975 202.861 8.21628C202.26 8.59853 202.129 8.61378 199.19 8.64463L196.475 8.67314ZM201.291 6.78806C201.274 6.60336 201.226 6.53309 201.048 6.4366C200.862 6.33569 200.646 6.31588 199.73 6.31581L198.634 6.31567V6.86785V7.42003H199.552C200.961 7.42003 201.334 7.28427 201.291 6.78806ZM200.873 4.37105C201.117 4.47976 201.119 4.81293 200.876 4.98569C200.734 5.08716 200.528 5.11221 199.669 5.13244L198.634 5.1568V4.6929V4.22907L199.666 4.26116C200.234 4.27876 200.777 4.32825 200.873 4.37105Z" fill="white"/>
<path fill-rule="evenodd" clip-rule="evenodd" d="M190.299 3.13644C188.022 3.40125 186.863 5.11187 187.699 6.97166C188.68 9.15179 194.324 9.27046 195.371 7.13299C196.664 4.49531 194.342 2.66615 190.299 3.13644ZM192.635 4.66533C193.412 5.01232 193.676 5.84645 193.225 6.53123C192.601 7.47753 190.317 7.37978 189.804 6.38483C189.14 5.09906 191.032 3.94999 192.635 4.66533Z" fill="white"/>
<path fill-rule="evenodd" clip-rule="evenodd" d="M187.426 12.6639C185.149 12.9287 183.99 14.6393 184.826 16.4991C185.807 18.6793 191.451 18.7979 192.498 16.6605C193.791 14.0228 191.469 12.1936 187.426 12.6639ZM189.762 14.1928C190.539 14.5398 190.803 15.3739 190.352 16.0587C189.728 17.005 187.444 16.9072 186.931 15.9123C186.267 14.6265 188.159 13.4775 189.762 14.1928Z" fill="white"/>
<path fill-rule="evenodd" clip-rule="evenodd" d="M204.136 12.6639C201.859 12.9287 200.7 14.6393 201.536 16.4991C202.517 18.6793 208.161 18.7979 209.208 16.6605C210.501 14.0228 208.179 12.1936 204.136 12.6639ZM206.472 14.1928C207.249 14.5398 207.513 15.3739 207.062 16.0587C206.438 17.005 204.154 16.9072 203.641 15.9123C202.977 14.6265 204.869 13.4775 206.472 14.1928Z" fill="white"/>
<path fill-rule="evenodd" clip-rule="evenodd" d="M164.968 3.13656C162.692 3.40137 161.532 5.11199 162.369 6.97178C163.349 9.15191 168.993 9.27058 170.041 7.13311C171.333 4.49543 169.012 2.66627 164.968 3.13656ZM167.304 4.66545C168.081 5.01244 168.345 5.84658 167.894 6.53135C167.271 7.47765 164.987 7.3799 164.473 6.38495C163.81 5.09919 165.702 3.95011 167.304 4.66545Z" fill="white"/>
<path d="M179.765 8.67313V5.86788V3.06262H180.854H181.943V4.15272V5.2429L182.952 4.15272L183.962 3.06262L185.178 3.06394L186.395 3.06518L185.188 4.32803L183.982 5.59082L185.333 7.10004C186.075 7.93019 186.683 8.62368 186.683 8.6412C186.683 8.6588 186.113 8.67182 185.418 8.67022L184.153 8.66739L183.064 7.41402L181.975 6.16066L181.957 7.41693L181.94 8.67313H180.852H179.765Z" fill="white"/>
<path d="M212.866 8.67313V5.86788V3.06262H213.955H215.044V4.15272V5.2429L216.053 4.15272L217.063 3.06262L218.279 3.06394L219.496 3.06518L218.289 4.32803L217.083 5.59082L218.434 7.10004C219.176 7.93019 219.784 8.62368 219.784 8.6412C219.784 8.6588 219.215 8.67182 218.519 8.67022L217.254 8.66739L216.165 7.41402L215.076 6.16066L215.058 7.41693L215.041 8.67313H213.953H212.866Z" fill="white"/>
<path d="M249.266 18.2006V15.3953V12.5901H250.355H251.444V13.6802V14.7704L252.453 13.6802L253.463 12.5901L254.679 12.5914L255.895 12.5927L254.689 13.8555L253.483 15.1183L254.834 16.6275C255.576 17.4577 256.184 18.1511 256.184 18.1687C256.184 18.1863 255.614 18.1993 254.919 18.1977L253.654 18.1949L252.565 16.9415L251.476 15.6881L251.458 16.9444L251.441 18.2006H250.353H249.266Z" fill="white"/>
<path d="M171.433 7.02959C170.569 5.17585 171.711 3.39283 173.927 3.13423C176.803 2.79852 179.016 3.67233 179.019 5.14542L179.02 5.38719H177.939H176.858L176.703 5.14748C175.689 3.58135 172.83 4.71299 173.533 6.40239C173.983 7.48355 176.773 7.46563 176.773 6.38157C176.773 6.30568 176.967 6.28982 177.896 6.28982H179.02V6.504C179.02 9.06251 172.588 9.50808 171.433 7.02959Z" fill="white"/>
<path d="M204.534 7.02959C203.67 5.17585 204.811 3.39283 207.028 3.13423C209.904 2.79852 212.116 3.67233 212.12 5.14542L212.121 5.38719H211.04H209.959L209.804 5.14748C208.79 3.58135 205.93 4.71299 206.633 6.40239C207.083 7.48355 209.873 7.46563 209.873 6.38157C209.873 6.30568 210.068 6.28982 210.997 6.28982H212.121V6.504C212.121 9.06251 205.689 9.50808 204.534 7.02959Z" fill="white"/>
<path d="M168.772 26.0844C167.908 24.2307 169.05 22.4476 171.266 22.189C174.142 21.8533 176.355 22.7271 176.358 24.2002L176.359 24.442H175.278H174.197L174.042 24.2023C173.028 22.6362 170.169 23.7678 170.872 25.4572C171.321 26.5384 174.112 26.5204 174.112 25.4364C174.112 25.3605 174.306 25.3446 175.235 25.3446H176.359V25.5588C176.359 28.1173 169.927 28.5629 168.772 26.0844Z" fill="white"/>
<path d="M240.934 16.5571C240.07 14.7033 241.211 12.9203 243.427 12.6617C246.304 12.326 248.516 13.1998 248.52 14.6729L248.521 14.9147H247.44H246.359L246.204 14.6749C245.19 13.1088 242.33 14.2405 243.033 15.9299C243.483 17.011 246.273 16.9931 246.273 15.909C246.273 15.8331 246.468 15.8173 247.397 15.8173H248.521V16.0315C248.521 18.59 242.089 19.0355 240.934 16.5571Z" fill="white"/>
<path d="M152.305 8.66801V5.86532V3.06262H153.615H154.925L155.877 4.65303C156.4 5.52782 156.843 6.24178 156.861 6.23963C156.878 6.23749 157.326 5.52242 157.855 4.65054L158.818 3.06532L160.085 3.06394L161.352 3.06262V5.86532V8.66801H160.293H159.235V7.10688C159.235 6.24745 159.21 5.56235 159.179 5.5827C159.149 5.60304 158.711 6.30669 158.208 7.14639L157.291 8.67313L156.744 8.65327L156.197 8.63341L155.262 7.06162L154.326 5.48976L154.309 7.07892L154.292 8.66801H153.299H152.305Z" fill="white"/>
</svg>
