<svg width="95" height="101" viewBox="0 0 95 101" fill="none" xmlns="http://www.w3.org/2000/svg">
<g filter="url(#filter0_i_653_362)">
<rect width="94.5052" height="94.5052" rx="47.2526" transform="matrix(-1 0 0 1 94.5049 0)" fill="white"/>
</g>
<g filter="url(#filter1_d_653_362)">
<mask id="mask0_653_362" style="mask-type:alpha" maskUnits="userSpaceOnUse" x="6" y="6" width="82" height="82">
<rect x="7.99121" y="7.99194" width="78.7987" height="78.7987" fill="#ECEDF0" stroke="#B2B2B2" stroke-width="2.03601" stroke-miterlimit="10"/>
</mask>
<g mask="url(#mask0_653_362)">
<rect x="28.3838" y="33.1592" width="37.7126" height="34.1927" fill="white"/>
<path d="M47.3904 80.2239C46.0771 80.2239 44.8185 79.9777 43.6146 79.4852C42.4108 78.9927 41.3437 78.2813 40.4134 77.351C38.8265 75.7641 37.4585 74.7244 36.3093 74.2319C35.1602 73.7394 33.4365 73.4932 31.1382 73.4932C28.4021 73.4932 26.0765 72.5356 24.1612 70.6203C22.246 68.7051 21.2883 66.3794 21.2883 63.6434C21.2883 61.3451 21.0421 59.6213 20.5496 58.4722C20.0571 57.323 19.0174 55.955 17.4305 54.3681C16.5002 53.4378 15.7888 52.3708 15.2964 51.1669C14.8039 49.963 14.5576 48.7044 14.5576 47.3911C14.5576 46.0778 14.8039 44.8192 15.2964 43.6154C15.7888 42.4115 16.5002 41.3444 17.4305 40.4142C19.0174 38.8272 20.0571 37.4592 20.5496 36.3101C21.0421 35.1609 21.2883 33.4372 21.2883 31.1389C21.2883 28.4028 22.246 26.0772 24.1612 24.1619C26.0765 22.2467 28.4021 21.2891 31.1382 21.2891C33.4365 21.2891 35.1602 21.0428 36.3093 20.5503C37.4585 20.0578 38.8265 19.0181 40.4134 17.4312C41.3437 16.501 42.4108 15.7896 43.6146 15.2971C44.8185 14.8046 46.0771 14.5583 47.3904 14.5583C48.7037 14.5583 49.9623 14.8046 51.1662 15.2971C52.37 15.7896 53.4371 16.501 54.3674 17.4312C55.9543 19.0181 57.3223 20.0578 58.4715 20.5503C59.6206 21.0428 61.3443 21.2891 63.6426 21.2891C66.3787 21.2891 68.7043 22.2467 70.6196 24.1619C72.5348 26.0772 73.4925 28.4028 73.4925 31.1389C73.4925 33.4372 73.7387 35.1609 74.2312 36.3101C74.7237 37.4592 75.7634 38.8272 77.3503 40.4142C78.2806 41.3444 78.9919 42.4115 79.4844 43.6154C79.9769 44.8192 80.2232 46.0778 80.2232 47.3911C80.2232 48.7044 79.9769 49.963 79.4844 51.1669C78.9919 52.3708 78.2806 53.4378 77.3503 54.3681C75.7634 55.955 74.7237 57.323 74.2312 58.4722C73.7387 59.6213 73.4925 61.3451 73.4925 63.6434C73.4925 66.3794 72.5348 68.7051 70.6196 70.6203C68.7043 72.5356 66.3787 73.4932 63.6426 73.4932C61.3443 73.4932 59.6206 73.7394 58.4715 74.2319C57.3223 74.7244 55.9543 75.7641 54.3674 77.351C53.4371 78.2813 52.37 78.9927 51.1662 79.4852C49.9623 79.9777 48.7037 80.2239 47.3904 80.2239ZM55.5986 60.5242C56.9666 60.5242 58.1295 60.0454 59.0871 59.0878C60.0447 58.1302 60.5235 56.9674 60.5235 55.5993C60.5235 54.2313 60.0447 53.0685 59.0871 52.1108C58.1295 51.1532 56.9666 50.6744 55.5986 50.6744C54.2306 50.6744 53.0677 51.1532 52.1101 52.1108C51.1525 53.0685 50.6737 54.2313 50.6737 55.5993C50.6737 56.9674 51.1525 58.1302 52.1101 59.0878C53.0677 60.0454 54.2306 60.5242 55.5986 60.5242ZM36.7197 58.0618C37.9891 59.3311 40.047 59.3311 41.3163 58.0618L58.0611 41.3171C59.3304 40.0478 59.3304 37.9898 58.0611 36.7205V36.7205C56.7917 35.4512 54.7338 35.4512 53.4645 36.7205L36.7197 53.4652C35.4504 54.7345 35.4504 56.7925 36.7197 58.0618V58.0618ZM39.1822 44.1079C40.5502 44.1079 41.7131 43.629 42.6707 42.6714C43.6283 41.7138 44.1071 40.551 44.1071 39.1829C44.1071 37.8149 43.6283 36.6521 42.6707 35.6945C41.7131 34.7368 40.5502 34.258 39.1822 34.258C37.8142 34.258 36.6513 34.7368 35.6937 35.6945C34.7361 36.6521 34.2573 37.8149 34.2573 39.1829C34.2573 40.551 34.7361 41.7138 35.6937 42.6714C36.6513 43.629 37.8142 44.1079 39.1822 44.1079Z" fill="#FF0000"/>
</g>
</g>
<defs>
<filter id="filter0_i_653_362" x="0" y="-3.54078" width="94.5049" height="98.0459" filterUnits="userSpaceOnUse" color-interpolation-filters="sRGB">
<feFlood flood-opacity="0" result="BackgroundImageFix"/>
<feBlend mode="normal" in="SourceGraphic" in2="BackgroundImageFix" result="shape"/>
<feColorMatrix in="SourceAlpha" type="matrix" values="0 0 0 0 0 0 0 0 0 0 0 0 0 0 0 0 0 0 127 0" result="hardAlpha"/>
<feOffset dy="-3.54078"/>
<feGaussianBlur stdDeviation="4.24894"/>
<feComposite in2="hardAlpha" operator="arithmetic" k2="-1" k3="1"/>
<feColorMatrix type="matrix" values="0 0 0 0 0 0 0 0 0 0 0 0 0 0 0 0 0 0 0.25 0"/>
<feBlend mode="normal" in2="shape" result="effect1_innerShadow_653_362"/>
</filter>
<filter id="filter1_d_653_362" x="4.37755" y="14.5583" width="86.0262" height="86.0257" filterUnits="userSpaceOnUse" color-interpolation-filters="sRGB">
<feFlood flood-opacity="0" result="BackgroundImageFix"/>
<feColorMatrix in="SourceAlpha" type="matrix" values="0 0 0 0 0 0 0 0 0 0 0 0 0 0 0 0 0 0 127 0" result="hardAlpha"/>
<feOffset dy="10.1801"/>
<feGaussianBlur stdDeviation="5.09003"/>
<feComposite in2="hardAlpha" operator="out"/>
<feColorMatrix type="matrix" values="0 0 0 0 0 0 0 0 0 0 0 0 0 0 0 0 0 0 0.14 0"/>
<feBlend mode="normal" in2="BackgroundImageFix" result="effect1_dropShadow_653_362"/>
<feBlend mode="normal" in="SourceGraphic" in2="effect1_dropShadow_653_362" result="shape"/>
</filter>
</defs>
</svg>
