<svg width="91" height="92" viewBox="0 0 91 92" fill="none" xmlns="http://www.w3.org/2000/svg">
<g filter="url(#filter0_i_653_363)">
<rect width="87.5543" height="87.5501" rx="17.4998" transform="matrix(-1 0 0 1 89.0967 3.47168)" fill="white"/>
</g>
<mask id="mask0_653_363" style="mask-type:alpha" maskUnits="userSpaceOnUse" x="0" y="0" width="91" height="91">
<rect x="12.6709" width="78.4208" height="78.4208" transform="rotate(9.29799 12.6709 0)" fill="#D9D9D9"/>
</mask>
<g mask="url(#mask0_653_363)">
<path d="M18.1791 47.2563C19.1029 41.6132 21.2692 36.8082 24.6779 32.8412C28.0866 28.8742 31.6496 25.6498 35.3669 23.1681C39.0843 20.6864 42.4163 18.8728 45.363 17.7273L49.7831 16.0091L48.041 26.6503C47.7154 28.6388 48.1298 30.3208 49.2842 31.6962C50.4387 33.0717 51.8489 33.8958 53.5149 34.1686C54.4286 34.3181 55.3327 34.273 56.2273 34.0332C57.1219 33.7934 57.9889 33.3007 58.8284 32.5552L60.5698 31.0192C64.0698 33.91 66.6744 37.5509 68.3836 41.9419C70.0928 46.3329 70.5558 50.92 69.7727 55.7032C68.9984 60.4326 67.1368 64.5563 64.1879 68.0744C61.239 71.5924 57.6988 74.1721 53.5672 75.8134C54.692 74.6731 55.6351 73.379 56.3964 71.9309C57.1578 70.4828 57.6792 68.8988 57.9608 67.179C58.3127 65.0293 58.2418 62.9345 57.748 60.8946C57.2542 58.8547 56.3781 56.9592 55.1197 55.208L45.5069 42.1284L32.3056 51.4729C30.4919 52.7763 29.028 54.3025 27.9138 56.0515C26.7997 57.8006 26.0667 59.75 25.7147 61.8997C25.4332 63.6195 25.4223 65.287 25.6821 66.9023C25.9419 68.5176 26.423 70.0449 27.1255 71.4843C23.733 68.6112 21.2002 65.0372 19.5272 60.7625C17.8541 56.4878 17.4048 51.9857 18.1791 47.2563ZM44.0287 51.1573L49.7855 58.9702C50.5496 60.0334 51.081 61.1689 51.38 62.3767C51.6789 63.5845 51.7227 64.8333 51.5116 66.1232C51.0804 68.7566 49.7726 70.8464 47.588 72.3926C45.4034 73.9388 42.9675 74.4919 40.2803 74.0519C37.5932 73.612 35.4609 72.311 33.8834 70.1489C32.306 67.9868 31.7328 65.589 32.1639 62.9556C32.3663 61.7195 32.8039 60.5633 33.4768 59.487C34.1497 58.4107 35.0177 57.4905 36.0809 56.7265L44.0287 51.1573Z" fill="#ED131C"/>
</g>
<defs>
<filter id="filter0_i_653_363" x="1.54199" y="-0.069102" width="87.5547" height="91.0908" filterUnits="userSpaceOnUse" color-interpolation-filters="sRGB">
<feFlood flood-opacity="0" result="BackgroundImageFix"/>
<feBlend mode="normal" in="SourceGraphic" in2="BackgroundImageFix" result="shape"/>
<feColorMatrix in="SourceAlpha" type="matrix" values="0 0 0 0 0 0 0 0 0 0 0 0 0 0 0 0 0 0 127 0" result="hardAlpha"/>
<feOffset dy="-3.54078"/>
<feGaussianBlur stdDeviation="4.24894"/>
<feComposite in2="hardAlpha" operator="arithmetic" k2="-1" k3="1"/>
<feColorMatrix type="matrix" values="0 0 0 0 0 0 0 0 0 0 0 0 0 0 0 0 0 0 0.25 0"/>
<feBlend mode="normal" in2="shape" result="effect1_innerShadow_653_363"/>
</filter>
</defs>
</svg>
