<svg width="41" height="42" viewBox="0 0 41 42" fill="none" xmlns="http://www.w3.org/2000/svg">
<rect x="0.5" y="0.828857" width="40.5006" height="40.5006" rx="20.2503" fill="#E0E1E5"/>
<path d="M20.7502 34.3901C18.3986 34.3901 16.4797 34.0185 14.9933 33.2753C13.5069 32.5321 12.7637 31.5726 12.7637 30.3968C12.7637 29.8644 12.9245 29.3708 13.2462 28.916C13.5679 28.4612 14.0171 28.0674 14.594 27.7346L16.6904 29.698C16.4908 29.7867 16.2745 29.8866 16.0415 29.9975C15.8086 30.1084 15.6255 30.2415 15.4924 30.3968C15.7808 30.7518 16.4464 31.0624 17.4891 31.3286C18.5318 31.5948 19.6188 31.7279 20.7502 31.7279C21.8817 31.7279 22.9743 31.5948 24.028 31.3286C25.0818 31.0624 25.7529 30.7518 26.0413 30.3968C25.886 30.2193 25.6864 30.0751 25.4423 29.9642C25.1983 29.8533 24.9654 29.7535 24.7435 29.6647L26.8067 27.6681C27.4279 28.023 27.9048 28.4279 28.2376 28.8827C28.5704 29.3375 28.7368 29.8422 28.7368 30.3968C28.7368 31.5726 27.9936 32.5321 26.5072 33.2753C25.0208 34.0185 23.1018 34.3901 20.7502 34.3901ZM20.7835 27.0691C22.9798 25.4496 24.6326 23.8246 25.7418 22.194C26.8511 20.5634 27.4057 18.9273 27.4057 17.2856C27.4057 15.0227 26.6847 13.3145 25.2427 12.1609C23.8007 11.0073 22.3032 10.4305 20.7502 10.4305C19.1973 10.4305 17.6998 11.0073 16.2578 12.1609C14.8158 13.3145 14.0948 15.0227 14.0948 17.2856C14.0948 18.772 14.6383 20.3194 15.7254 21.9278C16.8124 23.5362 18.4985 25.2499 20.7835 27.0691ZM20.7502 30.3968C17.6222 28.0896 15.2872 25.8489 13.7454 23.6748C12.2035 21.5007 11.4326 19.371 11.4326 17.2856C11.4326 15.7105 11.7155 14.3295 12.2812 13.1426C12.8469 11.9557 13.5735 10.9629 14.4608 10.1643C15.3482 9.36562 16.3466 8.76663 17.4558 8.3673C18.565 7.96797 19.6632 7.76831 20.7502 7.76831C21.8373 7.76831 22.9354 7.96797 24.0447 8.3673C25.1539 8.76663 26.1522 9.36562 27.0396 10.1643C27.927 10.9629 28.6536 11.9557 29.2193 13.1426C29.785 14.3295 30.0679 15.7105 30.0679 17.2856C30.0679 19.371 29.2969 21.5007 27.7551 23.6748C26.2133 25.8489 23.8783 28.0896 20.7502 30.3968ZM20.7502 19.7481C21.4823 19.7481 22.1091 19.4874 22.6304 18.9661C23.1517 18.4448 23.4124 17.818 23.4124 17.0859C23.4124 16.3538 23.1517 15.7271 22.6304 15.2058C22.1091 14.6844 21.4823 14.4238 20.7502 14.4238C20.0181 14.4238 19.3914 14.6844 18.8701 15.2058C18.3487 15.7271 18.0881 16.3538 18.0881 17.0859C18.0881 17.818 18.3487 18.4448 18.8701 18.9661C19.3914 19.4874 20.0181 19.7481 20.7502 19.7481Z" fill="#1C1C1C"/>
</svg>
