<svg width="270" height="23" viewBox="0 0 270 23" fill="none" xmlns="http://www.w3.org/2000/svg">
<path d="M12.2649 12.8477V17.1434L6.2136 11.0093L12.2739 4.85704V9.16183L10.4513 11.0093L12.2649 12.8477Z" fill="#ED131C"/>
<path fill-rule="evenodd" clip-rule="evenodd" d="M0 21.2842V0.715843H20.2908V21.2842H0ZM3.77526 4.54288V17.4572H16.5153V4.54288H3.77526Z" fill="#ED131C"/>
<path d="M28.7057 19.1094L31.8853 15.6408C32.2322 16.0454 32.6272 16.4116 33.0705 16.7392C34.0918 17.4522 35.142 17.8087 36.2212 17.8087C37.0498 17.8087 37.6857 17.6449 38.1289 17.3173C38.5914 16.9704 38.8227 16.5561 38.8227 16.0744C38.8227 15.6504 38.5818 15.2843 38.1 14.9759C37.6376 14.6483 37.0498 14.3882 36.3368 14.1955C35.6431 13.9835 34.8819 13.7041 34.0533 13.3572C33.2246 13.0104 32.4538 12.625 31.7408 12.201C31.0471 11.7578 30.4593 11.1315 29.9776 10.3221C29.5151 9.49351 29.2838 8.52036 29.2838 7.40267C29.2838 5.72615 29.9872 4.27123 31.3939 3.03793C32.8007 1.80462 34.6506 1.18797 36.9438 1.18797C38.9865 1.18797 40.7786 1.66973 42.3203 2.63325C43.0333 3.09574 43.6017 3.5775 44.0257 4.07853L40.8461 7.5472C40.5763 7.23887 40.2776 6.97872 39.95 6.76675C39.237 6.22718 38.4276 5.95739 37.5219 5.95739C36.7704 5.95739 36.1923 6.10192 35.7876 6.39098C35.4022 6.66076 35.2095 6.99799 35.2095 7.40267C35.2095 7.82662 35.4407 8.20239 35.9032 8.52999C36.385 8.83832 36.9727 9.09847 37.6665 9.31044C38.3795 9.50315 39.1503 9.77293 39.9789 10.1198C40.8075 10.4667 41.5687 10.8617 42.2624 11.3049C42.9755 11.7289 43.5632 12.3552 44.0257 13.1838C44.5074 13.9931 44.7483 14.9567 44.7483 16.0744C44.7483 17.8858 44.0161 19.4274 42.5515 20.6992C41.1062 21.9518 39.1888 22.5781 36.7993 22.5781C34.4868 22.5781 32.4538 22 30.7002 20.8438C29.9294 20.3427 29.2646 19.7646 28.7057 19.1094ZM50.5532 22V14.7736L43.3268 1.76608H49.3969L53.2414 9.71512H53.357L57.2014 1.76608H63.2716L56.0452 14.7736V22H50.5532ZM63.8475 22V1.76608H68.6169L77.2886 12.8947V1.76608H82.7806V22H78.0112L69.3395 10.8713V22H63.8475ZM85.9727 22V1.76608H101.437V6.68003H91.4647V9.57059H99.1247V14.1955H91.4647V17.086H101.726V22H85.9727ZM103.751 22V1.76608H113.29C115.429 1.76608 117.192 2.43091 118.579 3.76057C119.967 5.09022 120.661 6.73784 120.661 8.70342C120.661 10.5534 120.082 12.0565 118.926 13.2127C118.425 13.7523 117.847 14.1762 117.192 14.4845L121.383 22H115.602L112.278 15.6408H109.243V22H103.751ZM109.243 10.7268H113.001C113.636 10.7268 114.157 10.5341 114.561 10.1487C114.966 9.7633 115.168 9.28154 115.168 8.70342C115.168 8.12531 114.966 7.64355 114.561 7.25814C114.157 6.87274 113.636 6.68003 113.001 6.68003H109.243V10.7268ZM133.374 14.7736V10.7268H142.046V18.5313C141.449 19.2636 140.697 19.9381 139.792 20.5547C137.787 21.9036 135.552 22.5781 133.085 22.5781C129.867 22.5781 127.179 21.5471 125.021 19.4852C122.882 17.404 121.812 14.87 121.812 11.883C121.812 8.89613 122.882 6.37171 125.021 4.30977C127.179 2.22857 129.867 1.18797 133.085 1.18797C135.513 1.18797 137.681 1.84316 139.589 3.15355C140.437 3.75093 141.16 4.39649 141.757 5.09022L138.433 8.84795C137.99 8.36619 137.498 7.93261 136.959 7.5472C135.706 6.68003 134.415 6.24645 133.085 6.24645C131.505 6.24645 130.166 6.79565 129.068 7.89407C127.988 8.97321 127.449 10.3029 127.449 11.883C127.449 13.4632 127.988 14.8025 129.068 15.9009C130.166 16.9801 131.505 17.5196 133.085 17.5196C134.126 17.5196 135.012 17.3269 135.745 16.9415C136.053 16.7874 136.371 16.5947 136.699 16.3634V14.7736H133.374ZM148.561 22V14.7736L141.335 1.76608H147.405L151.249 9.71512H151.365L155.209 1.76608H161.28L154.053 14.7736V22H148.561ZM168.914 22V6.68003H163.277V1.76608H180.042V6.68003H174.406V22H168.914ZM181.491 22V1.76608H191.03C193.169 1.76608 194.932 2.43091 196.32 3.76057C197.707 5.09022 198.401 6.73784 198.401 8.70342C198.401 10.5534 197.823 12.0565 196.666 13.2127C196.165 13.7523 195.587 14.1762 194.932 14.4845L199.123 22H193.342L190.018 15.6408H186.983V22H181.491ZM186.983 10.7268H190.741C191.377 10.7268 191.897 10.5341 192.302 10.1487C192.706 9.7633 192.909 9.28154 192.909 8.70342C192.909 8.12531 192.706 7.64355 192.302 7.25814C191.897 6.87274 191.377 6.68003 190.741 6.68003H186.983V10.7268ZM207.068 13.1838H210.826L209.005 7.40267H208.889L207.068 13.1838ZM198.252 22L205.912 1.76608H211.982L219.642 22H213.716L212.271 17.6642H205.623L204.177 22H198.252ZM222.977 22L215.751 1.76608H221.677L225.955 15.9298H226.07L230.348 1.76608H236.274L229.047 22H222.977ZM237.14 22V1.76608H252.604V6.68003H242.632V9.57059H250.292V14.1955H242.632V17.086H252.893V22H237.14ZM254.918 22V1.76608H260.41V16.797H269.226V22H254.918Z" fill="#1C1C1C"/>
</svg>
