<svg width="31" height="30" viewBox="0 0 31 30" fill="none" xmlns="http://www.w3.org/2000/svg">
<path d="M25.2522 26.0833L17.8731 18.7042C17.2874 19.1727 16.6139 19.5436 15.8526 19.8169C15.0912 20.0902 14.2811 20.2269 13.4221 20.2269C11.2943 20.2269 9.49342 19.4899 8.01954 18.016C6.54566 16.5421 5.80872 14.7413 5.80872 12.6134C5.80872 10.4856 6.54566 8.6847 8.01954 7.21082C9.49342 5.73694 11.2943 5 13.4221 5C15.55 5 17.3509 5.73694 18.8247 7.21082C20.2986 8.6847 21.0356 10.4856 21.0356 12.6134C21.0356 13.4724 20.8989 14.2825 20.6256 15.0439C20.3523 15.8052 19.9814 16.4787 19.5129 17.0644L26.892 24.4435L25.2522 26.0833ZM13.4221 17.8843C14.8863 17.8843 16.1308 17.3718 17.1556 16.3469C18.1805 15.322 18.693 14.0775 18.693 12.6134C18.693 11.1493 18.1805 9.9048 17.1556 8.87992C16.1308 7.85503 14.8863 7.34259 13.4221 7.34259C11.958 7.34259 10.7135 7.85503 9.68863 8.87992C8.66375 9.9048 8.15131 11.1493 8.15131 12.6134C8.15131 14.0775 8.66375 15.322 9.68863 16.3469C10.7135 17.3718 11.958 17.8843 13.4221 17.8843Z" fill="#878A90"/>
</svg>
